# xmcd CD database file
#
# Track frame offsets:
#       150
#       13447
#       30562
#       44156
#
# Disc length: 880 seconds
#
# Revision: 0
# Processed by: cddbd v1.5.2PL0 Copyright (c) Steve Scherf et al.
# Submitted via: jack 3.1.1
#
DISCID=33036e04
DTITLE=The Toy Hearts - Flyin' too high
DYEAR=2014
DGENRE=Bluegrass
TTITLE0=What goes up must come down
TTITLE1=Too late to dream
TTITLE2=Five minutes of the latest blues
TTITLE3=baby, that sure would go good
EXTD=
EXTT0=
EXTT1=
EXTT2=
EXTT3=
PLAYORDER=
